<mxfile host="Electron" agent="Mozilla/5.0 (X11; Linux x86_64) AppleWebKit/537.36 (KHTML, like Gecko) draw.io/27.0.9 Chrome/134.0.6998.205 Electron/35.4.0 Safari/537.36" version="27.0.9">
  <diagram name="Page-1" id="IU-JI77Un-w6ZwizcXrI">
    <mxGraphModel dx="973" dy="887" grid="1" gridSize="10" guides="1" tooltips="1" connect="1" arrows="1" fold="1" page="1" pageScale="1" pageWidth="850" pageHeight="1100" math="0" shadow="0">
      <root>
        <mxCell id="0" />
        <mxCell id="1" parent="0" />
        <mxCell id="8lKhcLqyseQ0rbKrVK9p-6" value="" style="edgeStyle=orthogonalEdgeStyle;rounded=0;orthogonalLoop=1;jettySize=auto;html=1;" edge="1" parent="1" source="8lKhcLqyseQ0rbKrVK9p-2" target="8lKhcLqyseQ0rbKrVK9p-5">
          <mxGeometry relative="1" as="geometry" />
        </mxCell>
        <mxCell id="8lKhcLqyseQ0rbKrVK9p-67" style="edgeStyle=orthogonalEdgeStyle;rounded=0;orthogonalLoop=1;jettySize=auto;html=1;" edge="1" parent="1" source="8lKhcLqyseQ0rbKrVK9p-2" target="8lKhcLqyseQ0rbKrVK9p-3">
          <mxGeometry relative="1" as="geometry" />
        </mxCell>
        <mxCell id="8lKhcLqyseQ0rbKrVK9p-2" value="&lt;b&gt;FastAPI&lt;/b&gt;" style="rounded=1;whiteSpace=wrap;html=1;fillColor=#f0a30a;fontColor=#000000;strokeColor=#BD7000;" vertex="1" parent="1">
          <mxGeometry x="360" y="240" width="120" height="40" as="geometry" />
        </mxCell>
        <mxCell id="8lKhcLqyseQ0rbKrVK9p-80" style="edgeStyle=orthogonalEdgeStyle;rounded=0;orthogonalLoop=1;jettySize=auto;html=1;" edge="1" parent="1" source="8lKhcLqyseQ0rbKrVK9p-3" target="8lKhcLqyseQ0rbKrVK9p-79">
          <mxGeometry relative="1" as="geometry" />
        </mxCell>
        <mxCell id="8lKhcLqyseQ0rbKrVK9p-81" style="edgeStyle=orthogonalEdgeStyle;rounded=0;orthogonalLoop=1;jettySize=auto;html=1;" edge="1" parent="1" source="8lKhcLqyseQ0rbKrVK9p-3" target="8lKhcLqyseQ0rbKrVK9p-68">
          <mxGeometry relative="1" as="geometry" />
        </mxCell>
        <mxCell id="8lKhcLqyseQ0rbKrVK9p-3" value="/reservations" style="whiteSpace=wrap;html=1;rounded=1;" vertex="1" parent="1">
          <mxGeometry x="520" y="320" width="80" height="40" as="geometry" />
        </mxCell>
        <mxCell id="8lKhcLqyseQ0rbKrVK9p-71" style="edgeStyle=orthogonalEdgeStyle;rounded=0;orthogonalLoop=1;jettySize=auto;html=1;" edge="1" parent="1" source="8lKhcLqyseQ0rbKrVK9p-5" target="8lKhcLqyseQ0rbKrVK9p-69">
          <mxGeometry relative="1" as="geometry" />
        </mxCell>
        <mxCell id="8lKhcLqyseQ0rbKrVK9p-72" style="edgeStyle=orthogonalEdgeStyle;rounded=0;orthogonalLoop=1;jettySize=auto;html=1;" edge="1" parent="1" source="8lKhcLqyseQ0rbKrVK9p-5" target="8lKhcLqyseQ0rbKrVK9p-70">
          <mxGeometry relative="1" as="geometry" />
        </mxCell>
        <mxCell id="8lKhcLqyseQ0rbKrVK9p-5" value="/tables" style="whiteSpace=wrap;html=1;rounded=1;" vertex="1" parent="1">
          <mxGeometry x="240" y="320" width="80" height="40" as="geometry" />
        </mxCell>
        <mxCell id="8lKhcLqyseQ0rbKrVK9p-88" style="edgeStyle=orthogonalEdgeStyle;rounded=0;orthogonalLoop=1;jettySize=auto;html=1;" edge="1" parent="1" source="8lKhcLqyseQ0rbKrVK9p-7" target="8lKhcLqyseQ0rbKrVK9p-19">
          <mxGeometry relative="1" as="geometry" />
        </mxCell>
        <mxCell id="8lKhcLqyseQ0rbKrVK9p-7" value="GET" style="whiteSpace=wrap;html=1;rounded=1;" vertex="1" parent="1">
          <mxGeometry x="200" y="480" width="80" height="40" as="geometry" />
        </mxCell>
        <mxCell id="8lKhcLqyseQ0rbKrVK9p-86" style="edgeStyle=orthogonalEdgeStyle;rounded=0;orthogonalLoop=1;jettySize=auto;html=1;" edge="1" parent="1" source="8lKhcLqyseQ0rbKrVK9p-9" target="8lKhcLqyseQ0rbKrVK9p-48">
          <mxGeometry relative="1" as="geometry">
            <Array as="points">
              <mxPoint x="60" y="500" />
            </Array>
          </mxGeometry>
        </mxCell>
        <mxCell id="8lKhcLqyseQ0rbKrVK9p-9" value="POST" style="whiteSpace=wrap;html=1;rounded=1;" vertex="1" parent="1">
          <mxGeometry x="80" y="480" width="80" height="40" as="geometry" />
        </mxCell>
        <mxCell id="8lKhcLqyseQ0rbKrVK9p-90" style="edgeStyle=orthogonalEdgeStyle;rounded=0;orthogonalLoop=1;jettySize=auto;html=1;" edge="1" parent="1" source="8lKhcLqyseQ0rbKrVK9p-10" target="8lKhcLqyseQ0rbKrVK9p-20">
          <mxGeometry relative="1" as="geometry" />
        </mxCell>
        <mxCell id="8lKhcLqyseQ0rbKrVK9p-10" value="DELETE" style="whiteSpace=wrap;html=1;rounded=1;" vertex="1" parent="1">
          <mxGeometry x="320" y="480" width="80" height="40" as="geometry" />
        </mxCell>
        <mxCell id="8lKhcLqyseQ0rbKrVK9p-97" style="edgeStyle=orthogonalEdgeStyle;rounded=0;orthogonalLoop=1;jettySize=auto;html=1;" edge="1" parent="1" source="8lKhcLqyseQ0rbKrVK9p-13" target="8lKhcLqyseQ0rbKrVK9p-32">
          <mxGeometry relative="1" as="geometry" />
        </mxCell>
        <mxCell id="8lKhcLqyseQ0rbKrVK9p-13" value="GET" style="whiteSpace=wrap;html=1;rounded=1;" vertex="1" parent="1">
          <mxGeometry x="560" y="480" width="80" height="40" as="geometry" />
        </mxCell>
        <mxCell id="8lKhcLqyseQ0rbKrVK9p-96" style="edgeStyle=orthogonalEdgeStyle;rounded=0;orthogonalLoop=1;jettySize=auto;html=1;" edge="1" parent="1" source="8lKhcLqyseQ0rbKrVK9p-14" target="8lKhcLqyseQ0rbKrVK9p-91">
          <mxGeometry relative="1" as="geometry">
            <Array as="points">
              <mxPoint x="780" y="500" />
            </Array>
          </mxGeometry>
        </mxCell>
        <mxCell id="8lKhcLqyseQ0rbKrVK9p-14" value="POST" style="whiteSpace=wrap;html=1;rounded=1;" vertex="1" parent="1">
          <mxGeometry x="680" y="480" width="80" height="40" as="geometry" />
        </mxCell>
        <mxCell id="8lKhcLqyseQ0rbKrVK9p-99" style="edgeStyle=orthogonalEdgeStyle;rounded=0;orthogonalLoop=1;jettySize=auto;html=1;" edge="1" parent="1" source="8lKhcLqyseQ0rbKrVK9p-15" target="8lKhcLqyseQ0rbKrVK9p-33">
          <mxGeometry relative="1" as="geometry" />
        </mxCell>
        <mxCell id="8lKhcLqyseQ0rbKrVK9p-15" value="DELETE" style="whiteSpace=wrap;html=1;rounded=1;" vertex="1" parent="1">
          <mxGeometry x="440" y="480" width="80" height="40" as="geometry" />
        </mxCell>
        <mxCell id="8lKhcLqyseQ0rbKrVK9p-19" value="Table" style="shape=table;startSize=30;container=1;collapsible=1;childLayout=tableLayout;fixedRows=1;rowLines=0;fontStyle=1;align=center;resizeLast=1;html=1;" vertex="1" parent="1">
          <mxGeometry x="160" y="720" width="160" height="150" as="geometry" />
        </mxCell>
        <mxCell id="8lKhcLqyseQ0rbKrVK9p-20" value="" style="shape=tableRow;horizontal=0;startSize=0;swimlaneHead=0;swimlaneBody=0;fillColor=none;collapsible=0;dropTarget=0;points=[[0,0.5],[1,0.5]];portConstraint=eastwest;top=0;left=0;right=0;bottom=1;" vertex="1" parent="8lKhcLqyseQ0rbKrVK9p-19">
          <mxGeometry y="30" width="160" height="30" as="geometry" />
        </mxCell>
        <mxCell id="8lKhcLqyseQ0rbKrVK9p-21" value="PK" style="shape=partialRectangle;connectable=0;fillColor=none;top=0;left=0;bottom=0;right=0;fontStyle=1;overflow=hidden;whiteSpace=wrap;html=1;" vertex="1" parent="8lKhcLqyseQ0rbKrVK9p-20">
          <mxGeometry width="30" height="30" as="geometry">
            <mxRectangle width="30" height="30" as="alternateBounds" />
          </mxGeometry>
        </mxCell>
        <mxCell id="8lKhcLqyseQ0rbKrVK9p-22" value="id&lt;span style=&quot;white-space: pre;&quot;&gt;&#x9;&lt;span style=&quot;white-space: pre;&quot;&gt;&#x9;&lt;/span&gt;&lt;/span&gt;:: INT" style="shape=partialRectangle;connectable=0;fillColor=none;top=0;left=0;bottom=0;right=0;align=left;spacingLeft=6;fontStyle=5;overflow=hidden;whiteSpace=wrap;html=1;" vertex="1" parent="8lKhcLqyseQ0rbKrVK9p-20">
          <mxGeometry x="30" width="130" height="30" as="geometry">
            <mxRectangle width="130" height="30" as="alternateBounds" />
          </mxGeometry>
        </mxCell>
        <mxCell id="8lKhcLqyseQ0rbKrVK9p-23" value="" style="shape=tableRow;horizontal=0;startSize=0;swimlaneHead=0;swimlaneBody=0;fillColor=none;collapsible=0;dropTarget=0;points=[[0,0.5],[1,0.5]];portConstraint=eastwest;top=0;left=0;right=0;bottom=0;" vertex="1" parent="8lKhcLqyseQ0rbKrVK9p-19">
          <mxGeometry y="60" width="160" height="30" as="geometry" />
        </mxCell>
        <mxCell id="8lKhcLqyseQ0rbKrVK9p-24" value="&lt;b&gt;NN&lt;/b&gt;" style="shape=partialRectangle;connectable=0;fillColor=none;top=0;left=0;bottom=0;right=0;editable=1;overflow=hidden;whiteSpace=wrap;html=1;" vertex="1" parent="8lKhcLqyseQ0rbKrVK9p-23">
          <mxGeometry width="30" height="30" as="geometry">
            <mxRectangle width="30" height="30" as="alternateBounds" />
          </mxGeometry>
        </mxCell>
        <mxCell id="8lKhcLqyseQ0rbKrVK9p-25" value="name &lt;span style=&quot;white-space: pre;&quot;&gt;&#x9;&lt;/span&gt;:: &lt;b&gt;VAR&lt;/b&gt;" style="shape=partialRectangle;connectable=0;fillColor=none;top=0;left=0;bottom=0;right=0;align=left;spacingLeft=6;overflow=hidden;whiteSpace=wrap;html=1;" vertex="1" parent="8lKhcLqyseQ0rbKrVK9p-23">
          <mxGeometry x="30" width="130" height="30" as="geometry">
            <mxRectangle width="130" height="30" as="alternateBounds" />
          </mxGeometry>
        </mxCell>
        <mxCell id="8lKhcLqyseQ0rbKrVK9p-26" value="" style="shape=tableRow;horizontal=0;startSize=0;swimlaneHead=0;swimlaneBody=0;fillColor=none;collapsible=0;dropTarget=0;points=[[0,0.5],[1,0.5]];portConstraint=eastwest;top=0;left=0;right=0;bottom=0;" vertex="1" parent="8lKhcLqyseQ0rbKrVK9p-19">
          <mxGeometry y="90" width="160" height="30" as="geometry" />
        </mxCell>
        <mxCell id="8lKhcLqyseQ0rbKrVK9p-27" value="&lt;b&gt;NN&lt;/b&gt;" style="shape=partialRectangle;connectable=0;fillColor=none;top=0;left=0;bottom=0;right=0;editable=1;overflow=hidden;whiteSpace=wrap;html=1;" vertex="1" parent="8lKhcLqyseQ0rbKrVK9p-26">
          <mxGeometry width="30" height="30" as="geometry">
            <mxRectangle width="30" height="30" as="alternateBounds" />
          </mxGeometry>
        </mxCell>
        <mxCell id="8lKhcLqyseQ0rbKrVK9p-28" value="seats &lt;span style=&quot;white-space: pre;&quot;&gt;&#x9;&lt;/span&gt;:: &lt;b&gt;INT&lt;/b&gt;" style="shape=partialRectangle;connectable=0;fillColor=none;top=0;left=0;bottom=0;right=0;align=left;spacingLeft=6;overflow=hidden;whiteSpace=wrap;html=1;" vertex="1" parent="8lKhcLqyseQ0rbKrVK9p-26">
          <mxGeometry x="30" width="130" height="30" as="geometry">
            <mxRectangle width="130" height="30" as="alternateBounds" />
          </mxGeometry>
        </mxCell>
        <mxCell id="8lKhcLqyseQ0rbKrVK9p-29" value="" style="shape=tableRow;horizontal=0;startSize=0;swimlaneHead=0;swimlaneBody=0;fillColor=none;collapsible=0;dropTarget=0;points=[[0,0.5],[1,0.5]];portConstraint=eastwest;top=0;left=0;right=0;bottom=0;" vertex="1" parent="8lKhcLqyseQ0rbKrVK9p-19">
          <mxGeometry y="120" width="160" height="30" as="geometry" />
        </mxCell>
        <mxCell id="8lKhcLqyseQ0rbKrVK9p-30" value="&lt;b&gt;NN&lt;/b&gt;" style="shape=partialRectangle;connectable=0;fillColor=none;top=0;left=0;bottom=0;right=0;editable=1;overflow=hidden;whiteSpace=wrap;html=1;" vertex="1" parent="8lKhcLqyseQ0rbKrVK9p-29">
          <mxGeometry width="30" height="30" as="geometry">
            <mxRectangle width="30" height="30" as="alternateBounds" />
          </mxGeometry>
        </mxCell>
        <mxCell id="8lKhcLqyseQ0rbKrVK9p-31" value="location&lt;span style=&quot;white-space: pre;&quot;&gt;&#x9;&lt;/span&gt;:: VAR" style="shape=partialRectangle;connectable=0;fillColor=none;top=0;left=0;bottom=0;right=0;align=left;spacingLeft=6;overflow=hidden;whiteSpace=wrap;html=1;" vertex="1" parent="8lKhcLqyseQ0rbKrVK9p-29">
          <mxGeometry x="30" width="130" height="30" as="geometry">
            <mxRectangle width="130" height="30" as="alternateBounds" />
          </mxGeometry>
        </mxCell>
        <mxCell id="8lKhcLqyseQ0rbKrVK9p-32" value="Reservation" style="shape=table;startSize=30;container=1;collapsible=1;childLayout=tableLayout;fixedRows=1;rowLines=0;fontStyle=1;align=center;resizeLast=1;html=1;" vertex="1" parent="1">
          <mxGeometry x="500" y="720" width="200" height="180" as="geometry" />
        </mxCell>
        <mxCell id="8lKhcLqyseQ0rbKrVK9p-33" value="" style="shape=tableRow;horizontal=0;startSize=0;swimlaneHead=0;swimlaneBody=0;fillColor=none;collapsible=0;dropTarget=0;points=[[0,0.5],[1,0.5]];portConstraint=eastwest;top=0;left=0;right=0;bottom=1;" vertex="1" parent="8lKhcLqyseQ0rbKrVK9p-32">
          <mxGeometry y="30" width="200" height="30" as="geometry" />
        </mxCell>
        <mxCell id="8lKhcLqyseQ0rbKrVK9p-34" value="PK" style="shape=partialRectangle;connectable=0;fillColor=none;top=0;left=0;bottom=0;right=0;fontStyle=1;overflow=hidden;whiteSpace=wrap;html=1;" vertex="1" parent="8lKhcLqyseQ0rbKrVK9p-33">
          <mxGeometry width="30" height="30" as="geometry">
            <mxRectangle width="30" height="30" as="alternateBounds" />
          </mxGeometry>
        </mxCell>
        <mxCell id="8lKhcLqyseQ0rbKrVK9p-35" value="id&lt;span style=&quot;white-space: pre;&quot;&gt;&#x9;&lt;span style=&quot;white-space: pre;&quot;&gt;&#x9;&lt;span style=&quot;white-space: pre;&quot;&gt;&#x9;&lt;/span&gt;&lt;span style=&quot;white-space: pre;&quot;&gt;&#x9;&lt;/span&gt;&lt;/span&gt;&lt;/span&gt;:: INT" style="shape=partialRectangle;connectable=0;fillColor=none;top=0;left=0;bottom=0;right=0;align=left;spacingLeft=6;fontStyle=5;overflow=hidden;whiteSpace=wrap;html=1;" vertex="1" parent="8lKhcLqyseQ0rbKrVK9p-33">
          <mxGeometry x="30" width="170" height="30" as="geometry">
            <mxRectangle width="170" height="30" as="alternateBounds" />
          </mxGeometry>
        </mxCell>
        <mxCell id="8lKhcLqyseQ0rbKrVK9p-45" style="shape=tableRow;horizontal=0;startSize=0;swimlaneHead=0;swimlaneBody=0;fillColor=none;collapsible=0;dropTarget=0;points=[[0,0.5],[1,0.5]];portConstraint=eastwest;top=0;left=0;right=0;bottom=1;" vertex="1" parent="8lKhcLqyseQ0rbKrVK9p-32">
          <mxGeometry y="60" width="200" height="30" as="geometry" />
        </mxCell>
        <mxCell id="8lKhcLqyseQ0rbKrVK9p-46" value="FK" style="shape=partialRectangle;connectable=0;fillColor=none;top=0;left=0;bottom=0;right=0;fontStyle=1;overflow=hidden;whiteSpace=wrap;html=1;" vertex="1" parent="8lKhcLqyseQ0rbKrVK9p-45">
          <mxGeometry width="30" height="30" as="geometry">
            <mxRectangle width="30" height="30" as="alternateBounds" />
          </mxGeometry>
        </mxCell>
        <mxCell id="8lKhcLqyseQ0rbKrVK9p-47" value="table_id&lt;span style=&quot;white-space: pre;&quot;&gt;&#x9;&lt;span style=&quot;white-space: pre;&quot;&gt;&#x9;&lt;/span&gt;&lt;span style=&quot;white-space: pre;&quot;&gt;&#x9;&lt;/span&gt;&lt;/span&gt;:: INT" style="shape=partialRectangle;connectable=0;fillColor=none;top=0;left=0;bottom=0;right=0;align=left;spacingLeft=6;fontStyle=5;overflow=hidden;whiteSpace=wrap;html=1;" vertex="1" parent="8lKhcLqyseQ0rbKrVK9p-45">
          <mxGeometry x="30" width="170" height="30" as="geometry">
            <mxRectangle width="170" height="30" as="alternateBounds" />
          </mxGeometry>
        </mxCell>
        <mxCell id="8lKhcLqyseQ0rbKrVK9p-36" value="" style="shape=tableRow;horizontal=0;startSize=0;swimlaneHead=0;swimlaneBody=0;fillColor=none;collapsible=0;dropTarget=0;points=[[0,0.5],[1,0.5]];portConstraint=eastwest;top=0;left=0;right=0;bottom=0;" vertex="1" parent="8lKhcLqyseQ0rbKrVK9p-32">
          <mxGeometry y="90" width="200" height="30" as="geometry" />
        </mxCell>
        <mxCell id="8lKhcLqyseQ0rbKrVK9p-37" value="&lt;b&gt;NN&lt;/b&gt;" style="shape=partialRectangle;connectable=0;fillColor=none;top=0;left=0;bottom=0;right=0;editable=1;overflow=hidden;whiteSpace=wrap;html=1;" vertex="1" parent="8lKhcLqyseQ0rbKrVK9p-36">
          <mxGeometry width="30" height="30" as="geometry">
            <mxRectangle width="30" height="30" as="alternateBounds" />
          </mxGeometry>
        </mxCell>
        <mxCell id="8lKhcLqyseQ0rbKrVK9p-38" value="customer_name&amp;nbsp;&lt;span style=&quot;white-space: pre;&quot;&gt;&#x9;&lt;/span&gt;:: &lt;b&gt;VAR&lt;/b&gt;" style="shape=partialRectangle;connectable=0;fillColor=none;top=0;left=0;bottom=0;right=0;align=left;spacingLeft=6;overflow=hidden;whiteSpace=wrap;html=1;" vertex="1" parent="8lKhcLqyseQ0rbKrVK9p-36">
          <mxGeometry x="30" width="170" height="30" as="geometry">
            <mxRectangle width="170" height="30" as="alternateBounds" />
          </mxGeometry>
        </mxCell>
        <mxCell id="8lKhcLqyseQ0rbKrVK9p-39" value="" style="shape=tableRow;horizontal=0;startSize=0;swimlaneHead=0;swimlaneBody=0;fillColor=none;collapsible=0;dropTarget=0;points=[[0,0.5],[1,0.5]];portConstraint=eastwest;top=0;left=0;right=0;bottom=0;" vertex="1" parent="8lKhcLqyseQ0rbKrVK9p-32">
          <mxGeometry y="120" width="200" height="30" as="geometry" />
        </mxCell>
        <mxCell id="8lKhcLqyseQ0rbKrVK9p-40" value="&lt;b&gt;NN&lt;/b&gt;" style="shape=partialRectangle;connectable=0;fillColor=none;top=0;left=0;bottom=0;right=0;editable=1;overflow=hidden;whiteSpace=wrap;html=1;" vertex="1" parent="8lKhcLqyseQ0rbKrVK9p-39">
          <mxGeometry width="30" height="30" as="geometry">
            <mxRectangle width="30" height="30" as="alternateBounds" />
          </mxGeometry>
        </mxCell>
        <mxCell id="8lKhcLqyseQ0rbKrVK9p-41" value="reservation_time&lt;span style=&quot;white-space: pre;&quot;&gt;&#x9;&lt;/span&gt;:: &lt;b&gt;DT&lt;/b&gt;" style="shape=partialRectangle;connectable=0;fillColor=none;top=0;left=0;bottom=0;right=0;align=left;spacingLeft=6;overflow=hidden;whiteSpace=wrap;html=1;" vertex="1" parent="8lKhcLqyseQ0rbKrVK9p-39">
          <mxGeometry x="30" width="170" height="30" as="geometry">
            <mxRectangle width="170" height="30" as="alternateBounds" />
          </mxGeometry>
        </mxCell>
        <mxCell id="8lKhcLqyseQ0rbKrVK9p-42" value="" style="shape=tableRow;horizontal=0;startSize=0;swimlaneHead=0;swimlaneBody=0;fillColor=none;collapsible=0;dropTarget=0;points=[[0,0.5],[1,0.5]];portConstraint=eastwest;top=0;left=0;right=0;bottom=0;" vertex="1" parent="8lKhcLqyseQ0rbKrVK9p-32">
          <mxGeometry y="150" width="200" height="30" as="geometry" />
        </mxCell>
        <mxCell id="8lKhcLqyseQ0rbKrVK9p-43" value="&lt;b&gt;NN&lt;/b&gt;" style="shape=partialRectangle;connectable=0;fillColor=none;top=0;left=0;bottom=0;right=0;editable=1;overflow=hidden;whiteSpace=wrap;html=1;" vertex="1" parent="8lKhcLqyseQ0rbKrVK9p-42">
          <mxGeometry width="30" height="30" as="geometry">
            <mxRectangle width="30" height="30" as="alternateBounds" />
          </mxGeometry>
        </mxCell>
        <mxCell id="8lKhcLqyseQ0rbKrVK9p-44" value="duration_minutes&lt;span style=&quot;white-space: pre;&quot;&gt;&#x9;&lt;/span&gt;:: &lt;b&gt;INT&lt;/b&gt;" style="shape=partialRectangle;connectable=0;fillColor=none;top=0;left=0;bottom=0;right=0;align=left;spacingLeft=6;overflow=hidden;whiteSpace=wrap;html=1;" vertex="1" parent="8lKhcLqyseQ0rbKrVK9p-42">
          <mxGeometry x="30" width="170" height="30" as="geometry">
            <mxRectangle width="170" height="30" as="alternateBounds" />
          </mxGeometry>
        </mxCell>
        <mxCell id="8lKhcLqyseQ0rbKrVK9p-87" style="edgeStyle=orthogonalEdgeStyle;rounded=0;orthogonalLoop=1;jettySize=auto;html=1;" edge="1" parent="1" source="8lKhcLqyseQ0rbKrVK9p-48" target="8lKhcLqyseQ0rbKrVK9p-19">
          <mxGeometry relative="1" as="geometry" />
        </mxCell>
        <mxCell id="8lKhcLqyseQ0rbKrVK9p-48" value="RequestBody" style="swimlane;fontStyle=0;childLayout=stackLayout;horizontal=1;startSize=30;horizontalStack=0;resizeParent=1;resizeParentMax=0;resizeLast=0;collapsible=1;marginBottom=0;whiteSpace=wrap;html=1;" vertex="1" parent="1">
          <mxGeometry y="560" width="120" height="120" as="geometry" />
        </mxCell>
        <mxCell id="8lKhcLqyseQ0rbKrVK9p-49" value="name" style="text;strokeColor=none;fillColor=none;align=left;verticalAlign=middle;spacingLeft=4;spacingRight=4;overflow=hidden;points=[[0,0.5],[1,0.5]];portConstraint=eastwest;rotatable=0;whiteSpace=wrap;html=1;" vertex="1" parent="8lKhcLqyseQ0rbKrVK9p-48">
          <mxGeometry y="30" width="120" height="30" as="geometry" />
        </mxCell>
        <mxCell id="8lKhcLqyseQ0rbKrVK9p-50" value="seats" style="text;strokeColor=none;fillColor=none;align=left;verticalAlign=middle;spacingLeft=4;spacingRight=4;overflow=hidden;points=[[0,0.5],[1,0.5]];portConstraint=eastwest;rotatable=0;whiteSpace=wrap;html=1;" vertex="1" parent="8lKhcLqyseQ0rbKrVK9p-48">
          <mxGeometry y="60" width="120" height="30" as="geometry" />
        </mxCell>
        <mxCell id="8lKhcLqyseQ0rbKrVK9p-51" value="location" style="text;strokeColor=none;fillColor=none;align=left;verticalAlign=middle;spacingLeft=4;spacingRight=4;overflow=hidden;points=[[0,0.5],[1,0.5]];portConstraint=eastwest;rotatable=0;whiteSpace=wrap;html=1;" vertex="1" parent="8lKhcLqyseQ0rbKrVK9p-48">
          <mxGeometry y="90" width="120" height="30" as="geometry" />
        </mxCell>
        <mxCell id="8lKhcLqyseQ0rbKrVK9p-83" style="edgeStyle=orthogonalEdgeStyle;rounded=0;orthogonalLoop=1;jettySize=auto;html=1;" edge="1" parent="1" source="8lKhcLqyseQ0rbKrVK9p-68" target="8lKhcLqyseQ0rbKrVK9p-13">
          <mxGeometry relative="1" as="geometry" />
        </mxCell>
        <mxCell id="8lKhcLqyseQ0rbKrVK9p-84" style="edgeStyle=orthogonalEdgeStyle;rounded=0;orthogonalLoop=1;jettySize=auto;html=1;" edge="1" parent="1" source="8lKhcLqyseQ0rbKrVK9p-68" target="8lKhcLqyseQ0rbKrVK9p-14">
          <mxGeometry relative="1" as="geometry" />
        </mxCell>
        <mxCell id="8lKhcLqyseQ0rbKrVK9p-68" value="/" style="whiteSpace=wrap;html=1;rounded=1;" vertex="1" parent="1">
          <mxGeometry x="600" y="400" width="80" height="40" as="geometry" />
        </mxCell>
        <mxCell id="8lKhcLqyseQ0rbKrVK9p-77" style="edgeStyle=orthogonalEdgeStyle;rounded=0;orthogonalLoop=1;jettySize=auto;html=1;" edge="1" parent="1" source="8lKhcLqyseQ0rbKrVK9p-69" target="8lKhcLqyseQ0rbKrVK9p-9">
          <mxGeometry relative="1" as="geometry" />
        </mxCell>
        <mxCell id="8lKhcLqyseQ0rbKrVK9p-78" style="edgeStyle=orthogonalEdgeStyle;rounded=0;orthogonalLoop=1;jettySize=auto;html=1;" edge="1" parent="1" source="8lKhcLqyseQ0rbKrVK9p-69" target="8lKhcLqyseQ0rbKrVK9p-7">
          <mxGeometry relative="1" as="geometry" />
        </mxCell>
        <mxCell id="8lKhcLqyseQ0rbKrVK9p-69" value="/" style="whiteSpace=wrap;html=1;rounded=1;" vertex="1" parent="1">
          <mxGeometry x="160" y="400" width="80" height="40" as="geometry" />
        </mxCell>
        <mxCell id="8lKhcLqyseQ0rbKrVK9p-73" style="edgeStyle=orthogonalEdgeStyle;rounded=0;orthogonalLoop=1;jettySize=auto;html=1;" edge="1" parent="1" source="8lKhcLqyseQ0rbKrVK9p-70" target="8lKhcLqyseQ0rbKrVK9p-10">
          <mxGeometry relative="1" as="geometry" />
        </mxCell>
        <mxCell id="8lKhcLqyseQ0rbKrVK9p-70" value="/{id}" style="whiteSpace=wrap;html=1;rounded=1;" vertex="1" parent="1">
          <mxGeometry x="320" y="400" width="80" height="40" as="geometry" />
        </mxCell>
        <mxCell id="8lKhcLqyseQ0rbKrVK9p-82" style="edgeStyle=orthogonalEdgeStyle;rounded=0;orthogonalLoop=1;jettySize=auto;html=1;" edge="1" parent="1" source="8lKhcLqyseQ0rbKrVK9p-79" target="8lKhcLqyseQ0rbKrVK9p-15">
          <mxGeometry relative="1" as="geometry" />
        </mxCell>
        <mxCell id="8lKhcLqyseQ0rbKrVK9p-79" value="/{id}" style="whiteSpace=wrap;html=1;rounded=1;" vertex="1" parent="1">
          <mxGeometry x="440" y="400" width="80" height="40" as="geometry" />
        </mxCell>
        <mxCell id="8lKhcLqyseQ0rbKrVK9p-98" style="edgeStyle=orthogonalEdgeStyle;rounded=0;orthogonalLoop=1;jettySize=auto;html=1;" edge="1" parent="1" source="8lKhcLqyseQ0rbKrVK9p-91" target="8lKhcLqyseQ0rbKrVK9p-32">
          <mxGeometry relative="1" as="geometry" />
        </mxCell>
        <mxCell id="8lKhcLqyseQ0rbKrVK9p-91" value="RequestBody" style="swimlane;fontStyle=0;childLayout=stackLayout;horizontal=1;startSize=30;horizontalStack=0;resizeParent=1;resizeParentMax=0;resizeLast=0;collapsible=1;marginBottom=0;whiteSpace=wrap;html=1;" vertex="1" parent="1">
          <mxGeometry x="720" y="560" width="120" height="120" as="geometry" />
        </mxCell>
        <mxCell id="8lKhcLqyseQ0rbKrVK9p-92" value="customer_name" style="text;strokeColor=none;fillColor=none;align=left;verticalAlign=middle;spacingLeft=4;spacingRight=4;overflow=hidden;points=[[0,0.5],[1,0.5]];portConstraint=eastwest;rotatable=0;whiteSpace=wrap;html=1;" vertex="1" parent="8lKhcLqyseQ0rbKrVK9p-91">
          <mxGeometry y="30" width="120" height="30" as="geometry" />
        </mxCell>
        <mxCell id="8lKhcLqyseQ0rbKrVK9p-93" value="reservation_time" style="text;strokeColor=none;fillColor=none;align=left;verticalAlign=middle;spacingLeft=4;spacingRight=4;overflow=hidden;points=[[0,0.5],[1,0.5]];portConstraint=eastwest;rotatable=0;whiteSpace=wrap;html=1;" vertex="1" parent="8lKhcLqyseQ0rbKrVK9p-91">
          <mxGeometry y="60" width="120" height="30" as="geometry" />
        </mxCell>
        <mxCell id="8lKhcLqyseQ0rbKrVK9p-94" value="duration_minutes" style="text;strokeColor=none;fillColor=none;align=left;verticalAlign=middle;spacingLeft=4;spacingRight=4;overflow=hidden;points=[[0,0.5],[1,0.5]];portConstraint=eastwest;rotatable=0;whiteSpace=wrap;html=1;" vertex="1" parent="8lKhcLqyseQ0rbKrVK9p-91">
          <mxGeometry y="90" width="120" height="30" as="geometry" />
        </mxCell>
        <mxCell id="8lKhcLqyseQ0rbKrVK9p-102" style="edgeStyle=orthogonalEdgeStyle;rounded=0;orthogonalLoop=1;jettySize=auto;html=1;" edge="1" parent="1" source="8lKhcLqyseQ0rbKrVK9p-101" target="8lKhcLqyseQ0rbKrVK9p-32">
          <mxGeometry relative="1" as="geometry" />
        </mxCell>
        <mxCell id="8lKhcLqyseQ0rbKrVK9p-103" style="edgeStyle=orthogonalEdgeStyle;rounded=0;orthogonalLoop=1;jettySize=auto;html=1;" edge="1" parent="1" source="8lKhcLqyseQ0rbKrVK9p-101" target="8lKhcLqyseQ0rbKrVK9p-19">
          <mxGeometry relative="1" as="geometry" />
        </mxCell>
        <mxCell id="8lKhcLqyseQ0rbKrVK9p-101" value="&lt;b&gt;PostgreSQL&lt;/b&gt;" style="rounded=1;whiteSpace=wrap;html=1;fillColor=#f0a30a;fontColor=#000000;strokeColor=#BD7000;" vertex="1" parent="1">
          <mxGeometry x="360" y="960" width="120" height="40" as="geometry" />
        </mxCell>
      </root>
    </mxGraphModel>
  </diagram>
</mxfile>
